<svg width="480" height="361" viewBox="0 0 480 361" fill="none" xmlns="http://www.w3.org/2000/svg">
    <g opacity="0.1">
        <mask id="mask0_16_36747" style="mask-type:alpha" maskUnits="userSpaceOnUse" x="0" y="0" width="480"
            height="361">
            <rect x="479.5" y="0.5" width="360" height="479" transform="rotate(90 479.5 0.5)"
                fill="url(#paint0_linear_16_36747)" stroke="#6246E5" />
        </mask>
        <g mask="url(#mask0_16_36747)">
            <path
                d="M236.5 453.922C167.167 453.922 110.96 397.637 110.96 328.204C110.96 258.771 167.167 202.486 236.5 202.486C305.832 202.486 362.039 258.771 362.039 328.204C362.039 397.637 305.832 453.922 236.5 453.922Z"
                stroke="#6246E5" />
            <path
                d="M249.769 458.904C172.193 458.904 109.304 395.927 109.304 318.239C109.304 240.551 172.193 177.574 249.769 177.574C327.345 177.574 390.234 240.551 390.234 318.239C390.234 395.927 327.345 458.904 249.769 458.904Z"
                stroke="#6246E5" />
            <path
                d="M260.549 463.886C175.645 463.886 106.816 394.96 106.816 309.935C106.816 224.91 175.645 155.984 260.549 155.984C345.452 155.984 414.281 224.91 414.281 309.935C414.281 394.96 345.452 463.886 260.549 463.886Z"
                stroke="#6246E5" />
            <path
                d="M276.307 467.207C184.992 467.207 110.966 393.077 110.966 301.631C110.966 210.185 184.992 136.055 276.307 136.055C367.622 136.055 441.648 210.185 441.648 301.631C441.648 393.077 367.622 467.207 276.307 467.207Z"
                stroke="#6246E5" />
            <path
                d="M291.644 470.529C194.147 470.529 115.108 391.38 115.108 293.743C115.108 196.106 194.147 116.957 291.644 116.957C389.141 116.957 468.18 196.106 468.18 293.743C468.18 391.38 389.141 470.529 291.644 470.529Z"
                stroke="#6246E5" />
            <path
                d="M309.059 474.681C201.944 474.681 115.11 387.724 115.11 280.457C115.11 173.189 201.944 86.2324 309.059 86.2324C416.173 86.2324 503.008 173.189 503.008 280.457C503.008 387.724 416.173 474.681 309.059 474.681Z"
                stroke="#6246E5" />
        </g>
    </g>
    <defs>
        <linearGradient id="paint0_linear_16_36747" x1="736.035" y1="13.4669" x2="487.704" y2="484.066"
            gradientUnits="userSpaceOnUse">
            <stop stop-color="#747DEF" />
            <stop offset="1" stop-color="#5E3BE1" />
        </linearGradient>
    </defs>
</svg>