<svg width="70" height="70" viewBox="0 0 70 70" fill="none" xmlns="http://www.w3.org/2000/svg">
<circle cx="35" cy="35" r="35" fill="url(#paint0_linear_16_36766)"/>
<path d="M52.6105 23.9909C53.3018 25.1883 53.2092 26.6141 52.3677 27.7115L33.8939 51.8187C33.1321 52.8128 31.8776 53.3196 30.5948 53.0734C29.3387 52.8318 28.3427 51.9161 27.997 50.6845L25.2635 40.9559L24.9789 39.944L24.2449 39.1915L17.1864 31.96C16.2927 31.0449 15.9977 29.7245 16.4166 28.5159C16.8311 27.3211 17.8708 26.4541 19.1527 26.2861L49.267 22.3409C50.6381 22.1609 51.9192 22.7935 52.6105 23.9909Z" fill="white"/>
<path d="M25.2636 40.9557L27.997 50.6844C28.3427 51.9159 29.3386 52.8315 30.5948 53.0732C31.8776 53.3195 33.1321 52.8126 33.8939 51.8185L52.3677 27.7113C53.2092 26.6139 53.3018 25.1881 52.6105 23.9907L24.9789 39.9438L25.2636 40.9557Z" fill="white"/>
<path d="M36.2204 33.452C36.5016 33.939 36.3352 34.5621 35.8476 34.8436L25.2609 40.9558L24.9762 39.9439L24.2422 39.1914L34.8289 33.0792C35.3165 32.7977 35.9393 32.9651 36.2204 33.452Z" fill="url(#paint1_linear_16_36766)"/>
<path d="M25.2672 40.9564L35.8539 34.8442C36.3414 34.5627 36.5079 33.9396 36.2267 33.4526L24.9825 39.9445L25.2672 40.9564Z" fill="url(#paint2_linear_16_36766)"/>
<defs>
<linearGradient id="paint0_linear_16_36766" x1="49.6467" y1="1.96393" x2="19.564" y2="77.7643" gradientUnits="userSpaceOnUse">
<stop stop-color="#747DEF"/>
<stop offset="1" stop-color="#5E3BE1"/>
</linearGradient>
<linearGradient id="paint1_linear_16_36766" x1="32.405" y1="34.5446" x2="33.5425" y2="36.8256" gradientUnits="userSpaceOnUse">
<stop stop-color="#747DEF"/>
<stop offset="1" stop-color="#5E3BE1"/>
</linearGradient>
<linearGradient id="paint2_linear_16_36766" x1="32.9063" y1="35.4027" x2="33.5104" y2="36.5269" gradientUnits="userSpaceOnUse">
<stop stop-color="#747DEF"/>
<stop offset="1" stop-color="#5E3BE1"/>
</linearGradient>
</defs>
</svg>
