<svg width="107" height="35" viewBox="0 0 107 35" fill="none" xmlns="http://www.w3.org/2000/svg">
<rect width="107" height="35" rx="17.5" fill="#080809"/>
<g clip-path="url(#clip0_16_36682)">
<path d="M28.507 17.0013L18.4634 26.6725C17.9931 26.3511 17.7139 25.8165 17.7188 25.2468V8.75578C17.7139 8.18614 17.9931 7.6515 18.4634 7.33008L28.507 17.0013Z" fill="#2196F3"/>
<path d="M32.0188 13.6236L28.5045 17.0018L18.4609 7.33053C18.4988 7.3012 18.5382 7.27392 18.579 7.2488C19.1098 6.92708 19.7728 6.9167 20.3135 7.22156L32.0188 13.6236Z" fill="#4CAF50"/>
<path d="M36.2811 17.0012C36.2877 17.6442 35.9382 18.2382 35.373 18.5449L32.0221 20.3793L28.5078 17.0012L32.0221 13.623L35.373 15.4574C35.9382 15.7641 36.2877 16.3581 36.2811 17.0012Z" fill="#F0BB1F"/>
<path d="M32.0188 20.3801L20.3135 26.7822C19.7716 27.0823 19.1111 27.0719 18.579 26.7549C18.5382 26.7298 18.4988 26.7025 18.4609 26.6732L28.5045 17.002L32.0188 20.3801Z" fill="#F15A2B"/>
</g>
<path d="M48.0262 11.8791H45.2182V12.9991H46.7142C46.5142 13.5351 46.0262 13.8631 45.2822 13.8631C44.1942 13.8631 43.5222 13.1671 43.5222 12.2151C43.5222 11.2311 44.2262 10.5351 45.1702 10.5351C45.8022 10.5351 46.3062 10.8231 46.5382 11.1911L47.6262 10.5671C47.1542 9.81511 46.2502 9.28711 45.1782 9.28711C43.5302 9.28711 42.2422 10.5831 42.2422 12.2071C42.2422 13.8151 43.5062 15.1111 45.2662 15.1111C46.8342 15.1111 48.0262 14.0711 48.0262 12.3591V11.8791Z" fill="white"/>
<path d="M49.6278 13.7671V12.7751H51.6278V11.5591H49.6278V10.6311H51.8278V9.39911H48.3478V14.9991H51.8678V13.7671H49.6278Z" fill="white"/>
<path d="M55.95 9.39911H51.79V10.6311H53.23V14.9991H54.51V10.6311H55.95V9.39911Z" fill="white"/>
<path d="M57.7103 9.39911V14.9991H58.9903V9.39911H57.7103Z" fill="white"/>
<path d="M63.3125 9.39911H59.1525V10.6311H60.5925V14.9991H61.8725V10.6311H63.3125V9.39911Z" fill="white"/>
<path d="M67.7448 15.1111C69.3528 15.1111 70.6568 13.8471 70.6568 12.1991C70.6568 10.5511 69.3528 9.28711 67.7448 9.28711C66.1368 9.28711 64.8328 10.5511 64.8328 12.1991C64.8328 13.8471 66.1368 15.1111 67.7448 15.1111ZM67.7448 13.8631C66.8328 13.8631 66.1128 13.1991 66.1128 12.1991C66.1128 11.1991 66.8328 10.5351 67.7448 10.5351C68.6568 10.5351 69.3768 11.1991 69.3768 12.1991C69.3768 13.1991 68.6568 13.8631 67.7448 13.8631Z" fill="white"/>
<path d="M74.0975 9.39911V12.4391L71.9375 9.39911H70.9775V14.9991H72.2575V11.9591L74.4175 14.9991H75.3775V9.39911H74.0975Z" fill="white"/>
<path d="M48.0262 21.3911V21.6071C48.0262 22.3058 47.7782 22.8951 47.2822 23.3751C46.7862 23.8498 46.1329 24.0871 45.3222 24.0871C44.4689 24.0871 43.7649 23.8098 43.2102 23.2551C42.6555 22.6951 42.3782 22.0098 42.3782 21.1991C42.3782 20.3884 42.6529 19.7058 43.2022 19.1511C43.7515 18.5911 44.4475 18.3111 45.2902 18.3111C45.8022 18.3111 46.2715 18.4338 46.6982 18.6791C47.1302 18.9244 47.4635 19.2524 47.6982 19.6631L47.3222 19.8871C47.1355 19.5351 46.8582 19.2524 46.4902 19.0391C46.1275 18.8258 45.7275 18.7191 45.2902 18.7191C44.5649 18.7191 43.9675 18.9591 43.4982 19.4391C43.0342 19.9138 42.8022 20.5004 42.8022 21.1991C42.8022 21.8978 43.0369 22.4871 43.5062 22.9671C43.9755 23.4418 44.5809 23.6791 45.3222 23.6791C45.9782 23.6791 46.5089 23.5004 46.9142 23.1431C47.3195 22.7858 47.5462 22.3351 47.5942 21.7911H45.2182V21.3911H48.0262Z" fill="white"/>
<path d="M53.7048 23.2471C53.1448 23.8071 52.4621 24.0871 51.6568 24.0871C50.8515 24.0871 50.1688 23.8071 49.6088 23.2471C49.0488 22.6818 48.7688 21.9991 48.7688 21.1991C48.7688 20.3991 49.0488 19.7191 49.6088 19.1591C50.1688 18.5938 50.8515 18.3111 51.6568 18.3111C52.4621 18.3111 53.1448 18.5938 53.7048 19.1591C54.2648 19.7191 54.5448 20.3991 54.5448 21.1991C54.5448 21.9991 54.2648 22.6818 53.7048 23.2471ZM49.9048 22.9591C50.3848 23.4391 50.9688 23.6791 51.6568 23.6791C52.3448 23.6791 52.9261 23.4391 53.4008 22.9591C53.8808 22.4738 54.1208 21.8871 54.1208 21.1991C54.1208 20.5111 53.8808 19.9271 53.4008 19.4471C52.9261 18.9618 52.3448 18.7191 51.6568 18.7191C50.9688 18.7191 50.3848 18.9618 49.9048 19.4471C49.4301 19.9271 49.1928 20.5111 49.1928 21.1991C49.1928 21.8871 49.4301 22.4738 49.9048 22.9591Z" fill="white"/>
<path d="M60.2361 23.2471C59.6761 23.8071 58.9934 24.0871 58.1881 24.0871C57.3827 24.0871 56.7001 23.8071 56.1401 23.2471C55.5801 22.6818 55.3001 21.9991 55.3001 21.1991C55.3001 20.3991 55.5801 19.7191 56.1401 19.1591C56.7001 18.5938 57.3827 18.3111 58.1881 18.3111C58.9934 18.3111 59.6761 18.5938 60.2361 19.1591C60.7961 19.7191 61.0761 20.3991 61.0761 21.1991C61.0761 21.9991 60.7961 22.6818 60.2361 23.2471ZM56.4361 22.9591C56.9161 23.4391 57.5001 23.6791 58.1881 23.6791C58.8761 23.6791 59.4574 23.4391 59.9321 22.9591C60.4121 22.4738 60.6521 21.8871 60.6521 21.1991C60.6521 20.5111 60.4121 19.9271 59.9321 19.4471C59.4574 18.9618 58.8761 18.7191 58.1881 18.7191C57.5001 18.7191 56.9161 18.9618 56.4361 19.4471C55.9614 19.9271 55.7241 20.5111 55.7241 21.1991C55.7241 21.8871 55.9614 22.4738 56.4361 22.9591Z" fill="white"/>
<path d="M67.4793 21.3911V21.6071C67.4793 22.3058 67.2313 22.8951 66.7353 23.3751C66.2393 23.8498 65.586 24.0871 64.7753 24.0871C63.922 24.0871 63.218 23.8098 62.6633 23.2551C62.1086 22.6951 61.8313 22.0098 61.8313 21.1991C61.8313 20.3884 62.106 19.7058 62.6553 19.1511C63.2046 18.5911 63.9006 18.3111 64.7433 18.3111C65.2553 18.3111 65.7246 18.4338 66.1513 18.6791C66.5833 18.9244 66.9166 19.2524 67.1513 19.6631L66.7753 19.8871C66.5886 19.5351 66.3113 19.2524 65.9433 19.0391C65.5806 18.8258 65.1806 18.7191 64.7433 18.7191C64.018 18.7191 63.4206 18.9591 62.9513 19.4391C62.4873 19.9138 62.2553 20.5004 62.2553 21.1991C62.2553 21.8978 62.49 22.4871 62.9593 22.9671C63.4286 23.4418 64.034 23.6791 64.7753 23.6791C65.4313 23.6791 65.962 23.5004 66.3673 23.1431C66.7726 22.7858 66.9993 22.3351 67.0473 21.7911H64.6713V21.3911H67.4793Z" fill="white"/>
<path d="M68.9659 23.5991H71.6059V23.9991H68.5419V18.3991H68.9659V23.5991Z" fill="white"/>
<path d="M72.9112 23.5991H75.7113V23.9991H72.4872V18.3991H75.6712V18.7991H72.9112V20.9751H75.4712V21.3751H72.9112V23.5991Z" fill="white"/>
<path d="M80.7897 18.3991C81.291 18.3991 81.707 18.5644 82.0377 18.8951C82.3684 19.2258 82.5337 19.6391 82.5337 20.1351C82.5337 20.6311 82.3684 21.0444 82.0377 21.3751C81.707 21.7004 81.291 21.8631 80.7897 21.8631H79.3097V23.9991H78.8857V18.3991H80.7897ZM80.7897 21.4631C81.1737 21.4631 81.4884 21.3378 81.7337 21.0871C81.9844 20.8364 82.1097 20.5191 82.1097 20.1351C82.1097 19.7458 81.9844 19.4258 81.7337 19.1751C81.4884 18.9244 81.1737 18.7991 80.7897 18.7991H79.3097V21.4631H80.7897Z" fill="white"/>
<path d="M84.005 23.5991H86.645V23.9991H83.581V18.3991H84.005V23.5991Z" fill="white"/>
<path d="M91.4506 23.9991L90.9066 22.5751H88.0986L87.5546 23.9991H87.1066L89.2826 18.3991H89.7306L91.8986 23.9991H91.4506ZM88.2586 22.1751H90.7546L89.5066 18.9191L88.2586 22.1751Z" fill="white"/>
<path d="M95.8831 18.3991L93.8431 21.6951V23.9991H93.4191V21.6951L91.3791 18.3991H91.8591L93.6351 21.2871L95.4031 18.3991H95.8831Z" fill="white"/>
<defs>
<clipPath id="clip0_16_36682">
<rect width="20" height="20" fill="white" transform="translate(17 7)"/>
</clipPath>
</defs>
</svg>
