<svg width="80" height="35" viewBox="0 0 80 35" fill="none" xmlns="http://www.w3.org/2000/svg">
<path d="M25.1665 22.6201V10.5873L25.0303 10.5301L15.724 23.1529C12.6882 18.8813 9.71371 14.6955 6.73788 10.511L6.60979 10.526C6.59889 10.6963 6.57982 10.8653 6.57982 11.0343C6.57437 17.9079 6.57073 24.7825 6.56892 31.658C6.56892 32.4756 6.56892 32.4756 5.77591 32.4756C4.05771 32.4756 2.33816 32.4606 0.619966 32.4865C0.129444 32.4865 0.00545025 32.3148 0.00545025 31.8542C0.0127173 21.6014 0.0109005 11.3472 0 1.09163C0 0.591568 0.122631 0.388546 0.681282 0.396721C2.72513 0.426698 4.76897 0.415797 6.81282 0.396721C7.20524 0.396721 7.43278 0.546603 7.64807 0.862718C10.2097 4.63702 12.7795 8.40678 15.3575 12.172C15.461 12.3246 15.5755 12.469 15.7267 12.6721C15.8752 12.4976 15.991 12.3805 16.0851 12.2483C18.8029 8.41949 21.5185 4.58842 24.2318 0.755075C24.4635 0.410347 24.6815 0.332681 25.0712 0.522077C27.1014 1.49495 29.1407 2.44874 31.1891 3.38346C31.6156 3.57831 31.7791 3.82084 31.7682 4.29365C31.7382 5.6494 31.7804 7.00652 31.7409 8.3609C31.7366 8.81474 31.6372 9.26264 31.4493 9.67578C30.1017 12.3941 28.682 15.077 27.3616 17.8062C26.6477 19.2805 26.0795 20.8243 25.4459 22.3367C25.4023 22.4403 25.3532 22.5411 25.3096 22.6433L25.1665 22.6201Z" fill="#302D27"/>
<path d="M55.9212 26.6684H56.9581C61.4827 26.6684 66.0082 26.6684 70.5347 26.6684C71.5552 26.6684 72.5145 26.4654 73.317 25.7991C74.4779 24.8331 74.8663 23.3288 74.3676 21.8477C73.8757 20.3897 72.5186 19.2466 71.0729 19.2139C68.8029 19.1621 66.5301 19.1798 64.2601 19.1839C60.2242 19.1839 56.7292 16.8089 55.3898 13.1273C53.9782 9.26715 55.0682 5.06227 58.1844 2.48567C59.8358 1.11493 61.7543 0.375055 63.9208 0.370967C69.0558 0.359158 74.1923 0.355071 79.33 0.358704C79.4772 0.358704 79.6257 0.379143 79.875 0.398219C79.7701 0.598515 79.7102 0.745672 79.6243 0.876478C78.5697 2.46659 77.496 4.04444 76.4618 5.64545C76.2098 6.03651 75.925 6.16322 75.4781 6.16186C71.6779 6.14687 67.879 6.15232 64.0789 6.15369C62.8771 6.15369 61.8088 6.51613 61.0144 7.44403C59.9843 8.64582 59.8985 10.0329 60.5226 11.4145C61.1466 12.7962 62.2775 13.6451 63.8336 13.6832C66.0655 13.7377 68.3001 13.6955 70.5347 13.7023C73.5051 13.7118 75.9849 14.8305 77.8244 17.1591C80.2198 20.2085 80.6667 23.6258 79.0316 27.1167C77.4047 30.5858 74.5556 32.4471 70.6614 32.5029C67.8559 32.5438 65.0476 32.5029 62.2421 32.5247C61.9805 32.542 61.7185 32.4979 61.477 32.3959C61.2354 32.294 61.021 32.137 60.8509 31.9375C59.3644 30.3242 57.8274 28.7559 56.3122 27.1685C56.1964 27.054 56.1106 26.9164 55.9212 26.6684Z" fill="#302D27"/>
<path d="M59.622 32.4888H58.7812C56.6434 32.4888 54.5042 32.5079 52.3663 32.4779C52.0354 32.4626 51.7213 32.328 51.482 32.0991C47.5978 28.0223 43.7258 23.9346 39.8661 19.836C39.6345 19.5908 39.4056 19.3428 39.1276 19.0457C38.6971 19.6207 38.4028 20.1494 38.4068 20.8457C38.4246 24.4742 38.4164 28.1013 38.4164 31.7285C38.4164 32.4942 38.4164 32.4942 37.6792 32.4929C36.8385 32.4929 35.9978 32.4779 35.1585 32.501C34.9718 32.501 34.7879 32.6373 34.5045 32.7545C32.7835 31.7217 32.1091 29.7786 32.7781 27.5577C33.4185 25.4348 34.5412 23.5449 35.6163 21.6332C36.9789 19.2038 38.3769 16.7907 39.3538 14.1664C39.9561 12.5449 40.3676 10.8853 40.2845 9.13581C40.288 9.0476 40.3003 8.95996 40.3212 8.87419L40.4888 8.85103C40.666 9.50915 40.8417 10.1673 41.0339 10.8949C41.172 10.8 41.3027 10.6948 41.4249 10.5801C44.3435 7.32814 47.2576 4.07116 50.1671 0.80918C50.2915 0.655874 50.4508 0.534568 50.6317 0.455396C50.8125 0.376224 51.0097 0.341486 51.2068 0.354084C53.4945 0.377248 55.7822 0.364985 58.2022 0.364985C58.0859 0.546879 57.9595 0.722023 57.8234 0.889572C55.0737 3.85905 52.3222 6.82535 49.569 9.78847C47.7731 11.7179 45.9768 13.6432 44.18 15.5644C43.9075 15.8519 43.9715 16.0208 44.2127 16.2716C47.0659 19.2456 49.9146 22.2246 52.7587 25.2086C54.907 27.4568 57.0549 29.706 59.2023 31.956C59.3167 32.0759 59.4108 32.2176 59.622 32.4888Z" fill="#302D27"/>
<path d="M33.0422 34.0487C30.4084 34.2967 27.9367 32.7869 26.7104 30.303C25.6203 28.0861 25.6817 25.8065 26.3575 23.4997C27.2336 20.513 28.7297 17.8042 30.1086 15.0382C31.3581 12.5311 32.5612 9.9967 33.6785 7.43099C34.0669 6.54124 34.2236 5.5234 34.3353 4.54508C34.5615 2.63749 33.575 1.06101 31.8009 0.30206C31.6098 0.228718 31.4271 0.135074 31.2559 0.0227349C32.4458 -0.0814281 33.6396 0.173942 34.6828 0.755794C37.2853 2.20011 38.72 5.38851 38.2486 8.65866C37.8766 11.2298 36.8179 13.5584 35.6883 15.8544C34.15 18.9883 32.519 22.0731 31.0379 25.2315C30.4929 26.3911 30.1645 27.6841 29.926 28.9418C29.5173 31.1219 30.5869 32.9436 32.6157 33.8388C32.7125 33.8811 32.8065 33.9301 33.0422 34.0487Z" fill="#F1A501"/>
</svg>
