<svg width="24" height="18" viewBox="0 0 24 18" fill="none" xmlns="http://www.w3.org/2000/svg">
<path d="M20.8223 17.9271C20.3721 17.9363 19.93 17.8075 19.5552 17.558C19.2762 17.3758 18.9501 17.2787 18.6169 17.2787C18.2836 17.2787 17.9576 17.3758 17.6786 17.558C17.3 17.7991 16.8605 17.9271 16.4116 17.9271C15.9628 17.9271 15.5233 17.7991 15.1447 17.558C14.8657 17.3756 14.5396 17.2784 14.2062 17.2784C13.8729 17.2784 13.5468 17.3756 13.2678 17.558C12.8892 17.7991 12.4497 17.9271 12.0008 17.9271C11.552 17.9271 11.1125 17.7991 10.7339 17.558C10.4551 17.3757 10.1292 17.2786 9.79607 17.2786C9.46295 17.2786 9.13706 17.3757 8.85828 17.558C8.51501 17.7862 8.11441 17.913 7.70239 17.9239L7.67969 17.2752C7.98403 17.268 8.27957 17.1717 8.52974 16.9983C8.90826 16.7573 9.34767 16.6293 9.79639 16.6293C10.2451 16.6293 10.6845 16.7573 11.063 16.9983C11.342 17.1806 11.668 17.2777 12.0013 17.2777C12.3346 17.2777 12.6606 17.1806 12.9396 16.9983C13.3183 16.757 13.7579 16.6289 14.2069 16.6289C14.6559 16.6289 15.0955 16.757 15.4742 16.9983C15.7531 17.1806 16.0792 17.2777 16.4124 17.2777C16.7457 17.2777 17.0718 17.1806 17.3507 16.9983C17.7294 16.7573 18.1689 16.6293 18.6177 16.6293C19.0665 16.6293 19.506 16.7573 19.8847 16.9983C20.1643 17.1811 20.4911 17.2784 20.8252 17.2784C21.1593 17.2784 21.4861 17.1811 21.7657 16.9983C22.1401 16.7495 22.5815 16.621 23.0309 16.6298V17.2785C22.6963 17.2693 22.3675 17.3671 22.0923 17.5577C21.7166 17.8076 21.2734 17.9365 20.8223 17.9271Z" fill="white"/>
<path d="M3.18197 17.9287C2.7319 17.938 2.2898 17.8092 1.91516 17.5596C1.64003 17.3689 1.31121 17.2709 0.976562 17.2801V16.6314C1.42673 16.6221 1.86896 16.7509 2.2437 17.0005C2.51867 17.1913 2.84741 17.2892 3.18197 17.2801C3.51668 17.2893 3.84556 17.1912 4.12056 17.0002C4.4945 16.7507 4.936 16.622 5.38543 16.6314C5.82396 16.6216 6.25524 16.7444 6.62272 16.9839L6.29548 17.5437C6.02705 17.3631 5.70885 17.2709 5.38543 17.2801C5.0521 17.2711 4.72462 17.3688 4.45072 17.559C4.07566 17.8093 3.63277 17.9383 3.18197 17.9287Z" fill="white"/>
<path d="M20.8229 15.6572C20.3725 15.6664 19.93 15.5376 19.5548 15.2881C19.2756 15.1056 18.9493 15.0085 18.6158 15.0085C18.2822 15.0085 17.9559 15.1056 17.6767 15.2881C17.2981 15.5291 16.8586 15.6571 16.4099 15.6571C15.9611 15.6571 15.5216 15.5291 15.1431 15.2881C14.8642 15.1057 14.5383 15.0086 14.2051 15.0086C13.8719 15.0086 13.546 15.1057 13.2672 15.2881C12.8886 15.5291 12.4491 15.6572 12.0003 15.6572C11.5516 15.6572 11.1121 15.5291 10.7335 15.2881C10.4547 15.1057 10.1288 15.0086 9.79559 15.0086C9.46242 15.0086 9.13648 15.1057 8.85764 15.2881C8.48302 15.5377 8.0409 15.6665 7.59083 15.6572C7.14077 15.6665 6.69864 15.5377 6.32402 15.2881C6.04915 15.0973 5.72053 14.9994 5.38608 15.0085C5.05173 14.9994 4.72323 15.0974 4.44845 15.2881C4.07443 15.5374 3.63301 15.6662 3.18359 15.6572C2.73342 15.6665 2.29119 15.5377 1.91645 15.2881C1.64103 15.097 1.31167 14.999 0.976562 15.0085V14.3599C1.42663 14.3506 1.86873 14.4794 2.24337 14.729C2.5185 14.9197 2.84732 15.0176 3.18197 15.0085C3.51631 15.0176 3.84482 14.9197 4.11959 14.729C4.49362 14.4796 4.93503 14.3508 5.38445 14.3599C5.83486 14.3503 6.27735 14.4791 6.65224 14.729C6.92721 14.9197 7.25595 15.0177 7.59051 15.0085C7.92507 15.0177 8.2538 14.9197 8.52878 14.729C8.90732 14.4879 9.3468 14.3598 9.79559 14.3598C10.2444 14.3598 10.6839 14.4879 11.0624 14.729C11.3413 14.9113 11.6673 15.0085 12.0005 15.0085C12.3337 15.0085 12.6597 14.9113 12.9386 14.729C13.3172 14.4879 13.7566 14.3598 14.2054 14.3598C14.6542 14.3598 15.0937 14.4879 15.4722 14.729C15.7511 14.9113 16.0771 15.0085 16.4103 15.0085C16.7436 15.0085 17.0696 14.9113 17.3485 14.729C17.7274 14.488 18.1672 14.36 18.6162 14.36C19.0653 14.36 19.5051 14.488 19.884 14.729C20.1634 14.9113 20.4898 15.0084 20.8234 15.0084C21.157 15.0084 21.4834 14.9113 21.7628 14.729C22.1379 14.4795 22.5803 14.3507 23.0306 14.3599V15.0085C22.6953 14.999 22.3658 15.097 22.0901 15.2881C21.7152 15.5374 21.2731 15.6662 20.8229 15.6572Z" fill="white"/>
<path d="M20.8189 13.3868C20.3688 13.396 19.9266 13.2672 19.5518 13.0177C19.2767 12.827 18.9478 12.729 18.6132 12.7381C18.3676 12.7297 18.1237 12.7821 17.9032 12.8906L17.6172 12.3068C17.9268 12.155 18.2685 12.0802 18.6132 12.0885C19.0639 12.0793 19.5066 12.2085 19.8816 12.4586C20.1613 12.6414 20.4881 12.7387 20.8222 12.7387C21.1562 12.7387 21.4831 12.6414 21.7627 12.4586C22.1369 12.2096 22.5782 12.0809 23.0276 12.0895V12.7381C22.693 12.729 22.3642 12.8268 22.089 13.0174C21.7132 13.2672 21.27 13.3961 20.8189 13.3868Z" fill="white"/>
<path d="M16.4079 13.3876C15.9585 13.3971 15.517 13.2683 15.1431 13.0189C14.8641 12.8364 14.538 12.7392 14.2046 12.7392C13.8713 12.7392 13.5452 12.8364 13.2662 13.0189C12.8876 13.2599 12.448 13.388 11.9992 13.388C11.5504 13.388 11.1109 13.2599 10.7322 13.0189C10.4533 12.8365 10.1272 12.7394 9.79397 12.7394C9.4607 12.7394 9.13465 12.8365 8.8557 13.0189C8.48113 13.2681 8.03932 13.3967 7.58954 13.3876C7.13947 13.3969 6.69736 13.2681 6.32272 13.0185C6.0476 12.8278 5.71878 12.7299 5.38413 12.739C5.0508 12.73 4.72332 12.8277 4.44943 13.0179C4.07473 13.2679 3.63233 13.397 3.18197 13.3876C2.73191 13.3969 2.2898 13.2681 1.91516 13.0185C1.64003 12.8278 1.31121 12.7299 0.976562 12.739V12.0903C1.42673 12.081 1.86896 12.2098 2.2437 12.4594C2.51867 12.6502 2.84741 12.7482 3.18197 12.739C3.51668 12.7482 3.84556 12.6501 4.12056 12.4591C4.4945 12.2096 4.936 12.0809 5.38543 12.0903C5.83549 12.081 6.27759 12.2099 6.65224 12.4594C6.92721 12.6502 7.25595 12.7482 7.59051 12.739C7.92516 12.7481 8.25398 12.6501 8.5291 12.4594C8.90772 12.2184 9.34724 12.0903 9.79608 12.0903C10.2449 12.0903 10.6844 12.2184 11.063 12.4594C11.342 12.6418 11.668 12.7389 12.0013 12.7389C12.3346 12.7389 12.6606 12.6418 12.9396 12.4594C13.3183 12.2182 13.7579 12.0901 14.2069 12.0901C14.6559 12.0901 15.0955 12.2182 15.4742 12.4594C15.7599 12.6516 16.0988 12.7493 16.4429 12.7387C16.468 12.739 16.493 12.7377 16.5179 12.7348L16.6041 13.3776C16.539 13.3852 16.4735 13.3885 16.4079 13.3876Z" fill="white"/>
<path d="M20.8229 11.1162C20.3725 11.1253 19.93 10.9966 19.5548 10.7471C19.2756 10.5646 18.9493 10.4674 18.6158 10.4674C18.2822 10.4674 17.9559 10.5646 17.6767 10.7471C17.2981 10.9881 16.8586 11.1161 16.4099 11.1161C15.9611 11.1161 15.5216 10.9881 15.1431 10.7471C14.8642 10.5647 14.5383 10.4676 14.2051 10.4676C13.8719 10.4676 13.546 10.5647 13.2672 10.7471C12.8886 10.9881 12.4491 11.1162 12.0003 11.1162C11.5516 11.1162 11.1121 10.9881 10.7335 10.7471C10.4547 10.5647 10.1288 10.4676 9.79559 10.4676C9.46242 10.4676 9.13648 10.5647 8.85764 10.7471C8.48302 10.9967 8.0409 11.1255 7.59083 11.1162C7.14077 11.1255 6.69864 10.9967 6.32402 10.7471C6.04915 10.5563 5.72053 10.4584 5.38608 10.4675C5.05173 10.4584 4.72323 10.5564 4.44845 10.7471C4.07443 10.9964 3.63301 11.1252 3.18359 11.1162C2.73342 11.1255 2.29119 10.9967 1.91645 10.7471C1.64103 10.5559 1.31167 10.458 0.976562 10.4675V9.81886C1.42663 9.80955 1.86873 9.93836 2.24337 10.1879C2.5185 10.3787 2.84732 10.4766 3.18197 10.4675C3.51631 10.4766 3.84482 10.3786 4.11959 10.1879C4.49362 9.93861 4.93503 9.80981 5.38445 9.81886C5.83486 9.80929 6.27735 9.93811 6.65224 10.1879C6.92721 10.3787 7.25595 10.4767 7.59051 10.4675C7.92507 10.4767 8.2538 10.3787 8.52878 10.1879C8.90732 9.94684 9.3468 9.81877 9.79559 9.81877C10.2444 9.81877 10.6839 9.94684 11.0624 10.1879C11.3413 10.3703 11.6673 10.4674 12.0005 10.4674C12.3337 10.4674 12.6597 10.3703 12.9386 10.1879C13.3172 9.94684 13.7566 9.81877 14.2054 9.81877C14.6542 9.81877 15.0937 9.94684 15.4722 10.1879C15.7511 10.3703 16.0771 10.4674 16.4103 10.4674C16.7436 10.4674 17.0696 10.3703 17.3485 10.1879C17.7274 9.94694 18.1672 9.81894 18.6162 9.81894C19.0653 9.81894 19.5051 9.94694 19.884 10.1879C20.1634 10.3703 20.4898 10.4673 20.8234 10.4673C21.157 10.4673 21.4834 10.3703 21.7628 10.1879C22.1379 9.93851 22.5803 9.80973 23.0306 9.81886V10.4675C22.6953 10.458 22.3658 10.556 22.0901 10.7471C21.7152 10.9964 21.2731 11.1251 20.8229 11.1162Z" fill="white"/>
<path d="M16.1997 10.8418L15.5877 10.6271C15.7453 10.1743 15.8097 9.69423 15.777 9.21585C15.7442 8.73746 15.6151 8.27064 15.3973 7.84347L13.1695 3.48098C13.1475 3.4379 13.1354 3.39045 13.1341 3.34209C13.1328 3.29374 13.1424 3.24571 13.1621 3.20152C13.1818 3.15734 13.2111 3.11811 13.2479 3.08673C13.2847 3.05534 13.328 3.03258 13.3748 3.02012L17.8145 1.83633C17.9591 1.7985 18.083 1.70506 18.1592 1.57635C18.2353 1.44764 18.2575 1.29407 18.221 1.14906C18.1845 1.00404 18.0922 0.879305 17.9642 0.801993C17.8362 0.72468 17.6828 0.701045 17.5375 0.736227L12.1641 2.02055C12.0492 2.0477 11.9421 2.10092 11.8511 2.1761C11.7601 2.25128 11.6877 2.3464 11.6394 2.45408C11.591 2.56177 11.5681 2.67914 11.5725 2.79709C11.5768 2.91505 11.6082 3.03042 11.6643 3.13428L13.26 6.0986C13.3004 6.17395 13.3095 6.26222 13.2852 6.34422C13.2609 6.42623 13.2052 6.49531 13.1302 6.53644L11.0708 7.67158L10.7578 7.10336L12.5358 6.12325L11.0938 3.44174C10.9907 3.25031 10.9329 3.03773 10.925 2.82042C10.9172 2.60311 10.9594 2.38691 11.0484 2.18852C11.1375 1.99013 11.2709 1.81488 11.4385 1.67632C11.6061 1.53775 11.8033 1.43959 12.0149 1.38942L17.3857 0.105417C17.6984 0.0264108 18.0296 0.0748481 18.3066 0.240073C18.5835 0.405297 18.7835 0.673775 18.8625 0.986443C18.9415 1.29911 18.8931 1.63036 18.7279 1.90732C18.5626 2.18427 18.2942 2.38425 17.9815 2.46325L13.9294 3.54325L15.9752 7.54801C16.2328 8.05352 16.3855 8.60593 16.4241 9.17199C16.4627 9.73805 16.3863 10.3061 16.1997 10.8418Z" fill="white"/>
<path d="M9.62876 7.73255L5.6875 9.9043L6.00039 10.4721L9.94165 8.30038L9.62876 7.73255Z" fill="white"/>
<path d="M19.1356 8.68517C18.6545 8.68517 18.1842 8.54252 17.7842 8.27524C17.3842 8.00796 17.0724 7.62806 16.8883 7.1836C16.7042 6.73913 16.656 6.25005 16.7499 5.7782C16.8437 5.30636 17.0754 4.87294 17.4156 4.53276C17.7557 4.19257 18.1892 3.96091 18.661 3.86705C19.1329 3.7732 19.6219 3.82137 20.0664 4.00547C20.5109 4.18958 20.8908 4.50135 21.158 4.90136C21.4253 5.30137 21.568 5.77165 21.568 6.25274C21.5673 6.89765 21.3108 7.51595 20.8548 7.97197C20.3988 8.428 19.7805 8.68449 19.1356 8.68517ZM19.1356 4.46896C18.7828 4.46896 18.4379 4.57358 18.1445 4.76958C17.8512 4.96559 17.6226 5.24418 17.4876 5.57012C17.3525 5.89606 17.3172 6.25472 17.386 6.60074C17.4549 6.94676 17.6248 7.2646 17.8742 7.51407C18.1237 7.76354 18.4415 7.93342 18.7876 8.00225C19.1336 8.07108 19.4922 8.03575 19.8182 7.90074C20.1441 7.76573 20.4227 7.5371 20.6187 7.24376C20.8147 6.95042 20.9193 6.60554 20.9193 6.25274C20.9187 5.77984 20.7306 5.32648 20.3962 4.99208C20.0618 4.65769 19.6085 4.46956 19.1356 4.46896Z" fill="white"/>
</svg>
