<svg width="20" height="20" viewBox="0 0 20 20" fill="none" xmlns="http://www.w3.org/2000/svg">
<path d="M18.0686 2.76057L11.1936 17.7606C11.136 17.8862 11.0385 17.9893 10.9162 18.0536C10.7939 18.1179 10.6537 18.1399 10.5176 18.116C10.3814 18.0922 10.2571 18.024 10.1639 17.9219C10.0706 17.8199 10.0139 17.6899 10.0024 17.5521L9.4212 10.5792L2.44826 9.99795C2.31054 9.98651 2.1805 9.92975 2.07847 9.83655C1.97644 9.74334 1.90818 9.61895 1.88436 9.48283C1.86054 9.34671 1.8825 9.20653 1.94682 9.08421C2.01113 8.9619 2.11417 8.86435 2.23982 8.80683L17.2398 1.93182C17.3558 1.87868 17.4852 1.86229 17.6108 1.88486C17.7363 1.90742 17.852 1.96786 17.9422 2.05806C18.0323 2.14826 18.0928 2.26389 18.1154 2.38944C18.1379 2.51498 18.1215 2.64443 18.0684 2.76039L18.0686 2.76057Z" fill="#080809"/>
</svg>
