<svg width="100" height="35" viewBox="0 0 100 35" fill="none" xmlns="http://www.w3.org/2000/svg">
<rect width="100" height="35" rx="17.5" fill="#080809"/>
<path d="M21.7885 23.9994C19.4073 23.9856 17.4375 19.1246 17.4375 16.649C17.4375 12.6052 20.4711 11.7199 21.6402 11.7199C22.1671 11.7199 22.7297 11.9268 23.2259 12.1099C23.5729 12.2376 23.9318 12.3694 24.1314 12.3694C24.2508 12.3694 24.5324 12.2573 24.7809 12.1589C25.311 11.9478 25.9707 11.6855 26.7388 11.6855C26.7402 11.6855 26.742 11.6855 26.7433 11.6855C27.3169 11.6855 29.056 11.8114 30.1015 13.3815L30.3464 13.7496L29.9939 14.0155C29.4904 14.3955 28.5717 15.0885 28.5717 16.4614C28.5717 18.0874 29.6122 18.7127 30.112 19.0134C30.3327 19.1462 30.5611 19.283 30.5611 19.5824C30.5611 19.7779 29.001 23.9751 26.7356 23.9751C26.1812 23.9751 25.7894 23.8085 25.4438 23.6615C25.094 23.5128 24.7923 23.3846 24.2938 23.3846C24.0412 23.3846 23.7216 23.5041 23.3833 23.6309C22.9211 23.8034 22.3978 23.9994 21.8041 23.9994H21.7885Z" fill="white"/>
<path d="M26.9825 8C27.0415 10.1274 25.5201 11.6033 24.0004 11.5107C23.75 9.81297 25.5199 8 26.9825 8Z" fill="white"/>
<path d="M39.03 12.9991H40.08L38.652 8.79914H37.428L36 12.9991H37.05L37.26 12.3391H38.82L39.03 12.9991ZM37.548 11.4391L38.04 9.89714L38.532 11.4391H37.548Z" fill="white"/>
<path d="M42.2049 9.99914L41.5809 11.9011L40.9569 9.99914H39.9609L41.0709 12.9991H42.0909L43.2009 9.99914H42.2049Z" fill="white"/>
<path d="M45.592 9.99914V10.2811C45.394 10.0531 45.1 9.91514 44.698 9.91514C43.912 9.91514 43.264 10.6051 43.264 11.4991C43.264 12.3931 43.912 13.0831 44.698 13.0831C45.1 13.0831 45.394 12.9451 45.592 12.7171V12.9991H46.492V9.99914H45.592ZM44.878 12.2311C44.464 12.2311 44.164 11.9491 44.164 11.4991C44.164 11.0491 44.464 10.7671 44.878 10.7671C45.292 10.7671 45.592 11.0491 45.592 11.4991C45.592 11.9491 45.292 12.2311 44.878 12.2311Z" fill="white"/>
<path d="M47.1523 12.9991H48.0523V8.61914H47.1523V12.9991Z" fill="white"/>
<path d="M49.1609 9.73514C49.4549 9.73514 49.7009 9.48914 49.7009 9.19514C49.7009 8.90114 49.4549 8.65514 49.1609 8.65514C48.8669 8.65514 48.6209 8.90114 48.6209 9.19514C48.6209 9.48914 48.8669 9.73514 49.1609 9.73514ZM48.7109 12.9991H49.6109V9.99914H48.7109V12.9991Z" fill="white"/>
<path d="M52.0635 9.91514C51.6615 9.91514 51.3675 10.0531 51.1695 10.2811V8.79914H50.2695V12.9991H51.1695V12.7171C51.3675 12.9451 51.6615 13.0831 52.0635 13.0831C52.8495 13.0831 53.4975 12.3931 53.4975 11.4991C53.4975 10.6051 52.8495 9.91514 52.0635 9.91514ZM51.8835 12.2311C51.4695 12.2311 51.1695 11.9491 51.1695 11.4991C51.1695 11.0491 51.4695 10.7671 51.8835 10.7671C52.2975 10.7671 52.5975 11.0491 52.5975 11.4991C52.5975 11.9491 52.2975 12.2311 51.8835 12.2311Z" fill="white"/>
<path d="M54.0077 12.9991H54.9077V8.61914H54.0077V12.9991Z" fill="white"/>
<path d="M56.3703 11.8591H58.5003C58.5243 11.7451 58.5363 11.6251 58.5363 11.4991C58.5363 10.5931 57.8883 9.91514 57.0123 9.91514C56.0643 9.91514 55.4163 10.6051 55.4163 11.4991C55.4163 12.3931 56.0523 13.0831 57.0783 13.0831C57.6483 13.0831 58.0923 12.8731 58.3863 12.4651L57.6663 12.0511C57.5463 12.1831 57.3363 12.2791 57.0903 12.2791C56.7603 12.2791 56.4843 12.1711 56.3703 11.8591ZM56.3523 11.1871C56.4363 10.8811 56.6643 10.7131 57.0063 10.7131C57.2763 10.7131 57.5463 10.8391 57.6423 11.1871H56.3523Z" fill="white"/>
<path d="M61.9868 13.0831C62.8688 13.0831 63.5768 12.3931 63.5768 11.4991C63.5768 10.6051 62.8688 9.91514 61.9868 9.91514C61.1048 9.91514 60.3968 10.6051 60.3968 11.4991C60.3968 12.3931 61.1048 13.0831 61.9868 13.0831ZM61.9868 12.2071C61.5968 12.2071 61.2968 11.9251 61.2968 11.4991C61.2968 11.0731 61.5968 10.7911 61.9868 10.7911C62.3768 10.7911 62.6768 11.0731 62.6768 11.4991C62.6768 11.9251 62.3768 12.2071 61.9868 12.2071Z" fill="white"/>
<path d="M65.8439 9.91514C65.4479 9.91514 65.1479 10.0591 64.9859 10.2811V9.99914H64.0859V12.9991H64.9859V11.3611C64.9859 10.9351 65.2139 10.7431 65.5439 10.7431C65.8319 10.7431 66.0659 10.9171 66.0659 11.2891V12.9991H66.9659V11.1571C66.9659 10.3471 66.4499 9.91514 65.8439 9.91514Z" fill="white"/>
<path d="M70.8419 10.8631V9.99914H70.2239V9.15914L69.3239 9.42914V9.99914H68.8439V10.8631H69.3239V11.9251C69.3239 12.7651 69.6659 13.1191 70.8419 12.9991V12.1831C70.4459 12.2071 70.2239 12.1831 70.2239 11.9251V10.8631H70.8419Z" fill="white"/>
<path d="M73.1095 9.91514C72.7135 9.91514 72.4135 10.0591 72.2515 10.2811V8.79914H71.3515V12.9991H72.2515V11.3611C72.2515 10.9351 72.4795 10.7431 72.8095 10.7431C73.0975 10.7431 73.3315 10.9171 73.3315 11.2891V12.9991H74.2315V11.1571C74.2315 10.3471 73.7155 9.91514 73.1095 9.91514Z" fill="white"/>
<path d="M75.6535 11.8591H77.7835C77.8075 11.7451 77.8195 11.6251 77.8195 11.4991C77.8195 10.5931 77.1715 9.91514 76.2955 9.91514C75.3475 9.91514 74.6995 10.6051 74.6995 11.4991C74.6995 12.3931 75.3355 13.0831 76.3615 13.0831C76.9315 13.0831 77.3755 12.8731 77.6695 12.4651L76.9495 12.0511C76.8295 12.1831 76.6195 12.2791 76.3735 12.2791C76.0435 12.2791 75.7675 12.1711 75.6535 11.8591ZM75.6355 11.1871C75.7195 10.8811 75.9475 10.7131 76.2895 10.7131C76.5595 10.7131 76.8295 10.8391 76.9255 11.1871H75.6355Z" fill="white"/>
<path d="M41.05 23.9991H42.8L40.42 16.9991H38.38L36 23.9991H37.75L38.1 22.8991H40.7L41.05 23.9991ZM38.58 21.3991L39.4 18.8291L40.22 21.3991H38.58Z" fill="white"/>
<path d="M46.3369 18.8591C45.6669 18.8591 45.1769 19.0891 44.8469 19.4691V18.9991H43.3469V25.9991H44.8469V23.5291C45.1769 23.9091 45.6669 24.1391 46.3369 24.1391C47.6469 24.1391 48.7269 22.9891 48.7269 21.4991C48.7269 20.0091 47.6469 18.8591 46.3369 18.8591ZM46.0369 22.7191C45.3469 22.7191 44.8469 22.2491 44.8469 21.4991C44.8469 20.7491 45.3469 20.2791 46.0369 20.2791C46.7269 20.2791 47.2269 20.7491 47.2269 21.4991C47.2269 22.2491 46.7269 22.7191 46.0369 22.7191Z" fill="white"/>
<path d="M52.5673 18.8591C51.8973 18.8591 51.4073 19.0891 51.0773 19.4691V18.9991H49.5773V25.9991H51.0773V23.5291C51.4073 23.9091 51.8973 24.1391 52.5673 24.1391C53.8773 24.1391 54.9573 22.9891 54.9573 21.4991C54.9573 20.0091 53.8773 18.8591 52.5673 18.8591ZM52.2673 22.7191C51.5773 22.7191 51.0773 22.2491 51.0773 21.4991C51.0773 20.7491 51.5773 20.2791 52.2673 20.2791C52.9573 20.2791 53.4573 20.7491 53.4573 21.4991C53.4573 22.2491 52.9573 22.7191 52.2673 22.7191Z" fill="white"/>
<path d="M55.8078 23.9991H57.3078V16.6991H55.8078V23.9991Z" fill="white"/>
<path d="M59.7455 22.0991H63.2955C63.3355 21.9091 63.3555 21.7091 63.3555 21.4991C63.3555 19.9891 62.2755 18.8591 60.8155 18.8591C59.2355 18.8591 58.1555 20.0091 58.1555 21.4991C58.1555 22.9891 59.2155 24.1391 60.9255 24.1391C61.8755 24.1391 62.6155 23.7891 63.1055 23.1091L61.9055 22.4191C61.7055 22.6391 61.3555 22.7991 60.9455 22.7991C60.3955 22.7991 59.9355 22.6191 59.7455 22.0991ZM59.7155 20.9791C59.8555 20.4691 60.2355 20.1891 60.8055 20.1891C61.2555 20.1891 61.7055 20.3991 61.8655 20.9791H59.7155Z" fill="white"/>
<path d="M69.2062 24.1391C70.7262 24.1391 71.8063 23.3391 71.8063 21.9891C71.8063 20.5091 70.6163 20.1391 69.5563 19.8191C68.4663 19.4891 68.2962 19.2691 68.2962 18.9491C68.2962 18.6691 68.5462 18.4191 69.0462 18.4191C69.6862 18.4191 70.0162 18.7291 70.2562 19.2291L71.6063 18.4391C71.0963 17.4091 70.1963 16.8591 69.0462 16.8591C67.8363 16.8591 66.6963 17.6391 66.6963 18.9891C66.6963 20.3291 67.7162 20.8291 68.7562 21.1191C69.8062 21.4091 70.2062 21.5791 70.2062 22.0091C70.2062 22.2791 70.0162 22.5791 69.2562 22.5791C68.4662 22.5791 68.0363 22.1891 67.7862 21.6091L66.4062 22.4091C66.7962 23.4391 67.7362 24.1391 69.2062 24.1391Z" fill="white"/>
<path d="M75.3394 20.4391V18.9991H74.3094V17.5991L72.8094 18.0491V18.9991H72.0094V20.4391H72.8094V22.2091C72.8094 23.6091 73.3794 24.1991 75.3394 23.9991V22.6391C74.6794 22.6791 74.3094 22.6391 74.3094 22.2091V20.4391H75.3394Z" fill="white"/>
<path d="M78.491 24.1391C79.961 24.1391 81.141 22.9891 81.141 21.4991C81.141 20.0091 79.961 18.8591 78.491 18.8591C77.021 18.8591 75.841 20.0091 75.841 21.4991C75.841 22.9891 77.021 24.1391 78.491 24.1391ZM78.491 22.6791C77.841 22.6791 77.341 22.2091 77.341 21.4991C77.341 20.7891 77.841 20.3191 78.491 20.3191C79.141 20.3191 79.641 20.7891 79.641 21.4991C79.641 22.2091 79.141 22.6791 78.491 22.6791Z" fill="white"/>
<path d="M83.4895 19.8891V18.9991H81.9895V23.9991H83.4895V21.7391C83.4895 20.7491 84.3695 20.4991 84.9895 20.5991V18.8991C84.3595 18.8991 83.6895 19.2191 83.4895 19.8891Z" fill="white"/>
<path d="M86.8841 22.0991H90.4341C90.4741 21.9091 90.4941 21.7091 90.4941 21.4991C90.4941 19.9891 89.4141 18.8591 87.9541 18.8591C86.3741 18.8591 85.2941 20.0091 85.2941 21.4991C85.2941 22.9891 86.3541 24.1391 88.0641 24.1391C89.0141 24.1391 89.7541 23.7891 90.2441 23.1091L89.0441 22.4191C88.8441 22.6391 88.4941 22.7991 88.0841 22.7991C87.5341 22.7991 87.0741 22.6191 86.8841 22.0991ZM86.8541 20.9791C86.9941 20.4691 87.3741 20.1891 87.9441 20.1891C88.3941 20.1891 88.8441 20.3991 89.0041 20.9791H86.8541Z" fill="white"/>
</svg>
